<?xml version="1.0" encoding="UTF-8" standalone="no"?>
<!-- Created with Inkscape (http://www.inkscape.org/) -->

<svg
   width="148mm"
   height="50mm"
   viewBox="0 0 148 50"
   version="1.1"
   id="svg1"
   inkscape:version="1.3.2 (091e20e, 2023-11-25, custom)"
   sodipodi:docname="Verbtastic.svg"
   xmlns:inkscape="http://www.inkscape.org/namespaces/inkscape"
   xmlns:sodipodi="http://sodipodi.sourceforge.net/DTD/sodipodi-0.dtd"
   xmlns="http://www.w3.org/2000/svg"
   xmlns:svg="http://www.w3.org/2000/svg">
  <sodipodi:namedview
     id="namedview1"
     pagecolor="#ffffff"
     bordercolor="#000000"
     borderopacity="0.25"
     inkscape:showpageshadow="2"
     inkscape:pageopacity="0.0"
     inkscape:pagecheckerboard="0"
     inkscape:deskcolor="#d1d1d1"
     inkscape:document-units="mm"
     inkscape:zoom="0.93272306"
     inkscape:cx="397.22402"
     inkscape:cy="389.71911"
     inkscape:window-width="2400"
     inkscape:window-height="1261"
     inkscape:window-x="-9"
     inkscape:window-y="4"
     inkscape:window-maximized="1"
     inkscape:current-layer="layer1"
     showgrid="false" />
  <defs
     id="defs1" />
  <g
     inkscape:label="Capa 1"
     inkscape:groupmode="layer"
     id="layer1">
    <g
       id="text1"
       style="font-size:25.4px;letter-spacing:2.64583px;fill:#b73c00;stroke:#393939;stroke-width:0.264583;stroke-opacity:0.969027"
       aria-label="VerbTastic">
      <path
         style="fill:#bbff55;stroke:none"
         d="m 17.045219,6.2598146 -6.477,18.1355994 H 8.2822191 L 1.8052192,6.2598146 h 2.3875999 l 4.0894,11.6331994 q 0.4064,1.1176 0.6858,2.1082 0.2794,0.9652 0.4572,1.8542 0.1778,-0.889 0.4572,-1.8796 0.2793999,-0.9906 0.6857999,-2.1336 l 4.064,-11.5823994 z m 9.554627,4.2672004 q 1.7526,0 2.9972,0.762 1.27,0.762 1.9304,2.159 0.6858,1.371599 0.6858,3.225799 v 1.3462 h -9.3218 q 0.0508,2.3114 1.1684,3.5306 1.143,1.1938 3.175,1.1938 1.2954,0 2.286,-0.2286 1.016,-0.254 2.0828,-0.7112 v 1.9558 q -1.0414,0.4572 -2.0574,0.6604 -1.016,0.2286 -2.413,0.2286 -1.9304,0 -3.429,-0.7874 -1.4732,-0.7874 -2.3114,-2.3368 -0.8128,-1.5748 -0.8128,-3.8354 0,-2.2352 0.7366,-3.835399 0.762,-1.6002 2.1082,-2.4638 1.3716,-0.8636 3.175,-0.8636 z m -0.0254,1.8288 q -1.6002,0 -2.54,1.0414 -0.9144,1.016 -1.0922,2.844799 h 6.9342 q -0.0254,-1.727199 -0.8128,-2.793999 -0.7874,-1.0922 -2.4892,-1.0922 z m 18.089009,-1.8288 q 0.381,0 0.8128,0.0508 0.4572,0.0254 0.7874,0.1016 l -0.2794,2.0574 q -0.3302,-0.0762 -0.7366,-0.127 -0.381,-0.0508 -0.7366,-0.0508 -1.0414,0 -1.9558,0.5842 -0.9144,0.5588 -1.4732,1.600199 -0.5334,1.016 -0.5334,2.3876 v 7.2644 h -2.2352 V 10.781015 h 1.8288 l 0.254,2.4892 h 0.1016 q 0.6604,-1.1176 1.7018,-1.9304 1.0414,-0.8128 2.4638,-0.8128 z m 9.021232,-0.7366004 q 0,0.8636004 -0.0508,1.6256004 -0.0254,0.7366 -0.0762,1.1684 h 0.127 q 0.5842,-0.8636 1.6002,-1.4478 1.016,-0.5842 2.6162,-0.5842 2.54,0 4.064,1.778 1.5494,1.7526 1.5494,5.257799 0,3.5052 -1.5494,5.2832 -1.5494,1.778 -4.064,1.778 -1.6002,0 -2.6162,-0.5842 -1.016,-0.5842 -1.6002,-1.397 h -0.1778 l -0.4572,1.7272 h -1.6002 V 5.0914146 h 2.2352 z m 3.8354,2.6162004 q -2.159,0 -2.9972,1.2446 -0.8382,1.244599 -0.8382,3.860799 v 0.1016 q 0,2.5146 0.8128,3.8608 0.8382,1.3208 3.0734,1.3208 1.8288,0 2.7178,-1.3462 0.9144,-1.3462 0.9144,-3.8862 0,-5.156199 -3.683,-5.156199 z"
         id="path1" />
      <path
         style="fill:#00dd00;stroke:none"
         d="m 75.76151,24.395414 h -2.286 V 8.2664146 h -5.6642 v -2.0066 h 13.588999 v 2.0066 H 75.76151 Z M 89.608738,10.552415 q 2.4892,0 3.683,1.0922 1.1938,1.0922 1.1938,3.479799 v 9.271 h -1.6256 l -0.4318,-1.9304 h -0.1016 q -0.889,1.1176 -1.8796,1.651 -0.9652,0.5334 -2.6924,0.5334 -1.854199,0 -3.073399,-0.9652 -1.2192,-0.9906 -1.2192,-3.0734 0,-2.032 1.6002,-3.1242 1.6002,-1.1176 4.927599,-1.2192 l 2.3114,-0.0762 v -0.8128 q 0,-1.701799 -0.7366,-2.362199 -0.7366,-0.6604 -2.0828,-0.6604 -1.0668,0 -2.032,0.3302 -0.965199,0.3048 -1.803399,0.7112 l -0.6858,-1.6764 q 0.889,-0.4826 2.108199,-0.8128 1.2192,-0.3556 2.54,-0.3556 z m 0.6604,7.264399 q -2.54,0.1016 -3.530599,0.8128 -0.9652,0.7112 -0.9652,2.0066 0,1.143 0.6858,1.6764 0.711199,0.5334 1.803399,0.5334 1.7272,0 2.8702,-0.9398 1.143,-0.9652 1.143,-2.9464 v -1.2192 z m 19.943252,2.8194 q 0,1.9812 -1.4732,2.9972 -1.4732,1.016 -3.9624,1.016 -1.4224,0 -2.4638,-0.2286 -1.016,-0.2286 -1.8034,-0.635 v -2.032 q 0.8128,0.4064 1.9558,0.762 1.1684,0.3302 2.3622,0.3302 1.7018,0 2.4638,-0.5334 0.762,-0.5588 0.762,-1.4732 0,-0.508 -0.2794,-0.9144 -0.2794,-0.4064 -1.016,-0.8128 -0.7112,-0.4064 -2.0574,-0.9144 -1.3208,-0.508 -2.2606,-1.016 -0.9398,-0.508 -1.4478,-1.2192 -0.508,-0.7112 -0.508,-1.828799 0,-1.7272 1.397,-2.667 1.4224,-0.9398 3.7084,-0.9398 1.2446,0 2.3114,0.254 1.0922,0.2286 2.032,0.6604 l -0.762,1.778 q -0.8636,-0.3556 -1.8034,-0.6096 -0.9398,-0.254 -1.9304,-0.254 -1.3716,0 -2.1082,0.4572 -0.7112,0.4318 -0.7112,1.1938 0,0.5588 0.3302,0.965199 0.3302,0.381 1.0922,0.762 0.7874,0.3556 2.0828,0.8636 1.2954,0.4826 2.2098,0.9906 0.9144,0.508 1.397,1.2446 0.4826,0.7112 0.4826,1.8034 z m 10.49443,2.1844 q 0.508,0 1.0414,-0.0762 0.5334,-0.1016 0.8636,-0.2032 v 1.7018 q -0.3556,0.1778 -1.016,0.2794 -0.6604,0.127 -1.27,0.127 -1.0668,0 -1.9812,-0.3556 -0.889,-0.381 -1.4478,-1.2954 -0.5588,-0.9144 -0.5588,-2.5654 v -7.924799 h -1.9304 v -1.0668 l 1.9558,-0.889 0.889,-2.8956004 h 1.3208 v 3.1242004 h 3.937 v 1.7272 h -3.937 v 7.873999 q 0,1.2446 0.5842,1.8542 0.6096,0.5842 1.5494,0.5842 z m 8.41163,-17.1449994 q 0.508,0 0.889,0.3556 0.4064,0.3302 0.4064,1.0668 0,0.7112 -0.4064,1.0668 -0.381,0.3556 -0.889,0.3556 -0.5588,0 -0.9398,-0.3556 -0.381,-0.3556 -0.381,-1.0668 0,-0.7366 0.381,-1.0668 0.381,-0.3556 0.9398,-0.3556 z m 1.0922,5.1054004 v 13.614399 h -2.2352 V 10.781015 Z m 12.42482,13.868399 q -1.8034,0 -3.2258,-0.7366 -1.397,-0.7366 -2.2098,-2.286 -0.7874,-1.5494 -0.7874,-3.9624 0,-2.5146 0.8382,-4.089399 0.8382,-1.5748 2.2606,-2.3114 1.4478,-0.7366 3.2766,-0.7366 1.0414,0 2.0066,0.2286 0.9652,0.2032 1.5748,0.508 l -0.6858,1.8542 q -0.6096,-0.2286 -1.4224,-0.4318 -0.8128,-0.2032 -1.524,-0.2032 -4.0132,0 -4.0132,5.156199 0,2.4638 0.9652,3.7846 0.9906,1.2954 2.921,1.2954 1.1176,0 1.9558,-0.2286 0.8636,-0.2286 1.5748,-0.5588 v 1.9812 q -0.6858,0.3556 -1.524,0.5334 -0.8128,0.2032 -1.9812,0.2032 z"
         id="path2" />
    </g>
    <path
       style="font-size:12.3889px;fill:#0000ff;stroke-width:0.331845;stroke-opacity:0.969027"
       d="m 103.25572,41.662254 -2.91139,-7.755451 h -0.0495 q 0.0372,0.384056 0.0619,1.040668 0.0248,0.644222 0.0248,1.35039 v 5.364393 H 99.35322 V 32.81658 h 1.64772 l 2.72556,7.247506 h 0.0496 l 2.77511,-7.247506 h 1.63534 v 8.845674 h -1.10262 v -5.438727 q 0,-0.644222 0.0248,-1.276056 0.0372,-0.631834 0.0619,-1.028279 h -0.0496 l -2.94856,7.743062 z m 6.14489,-6.64045 h 1.16456 l 1.43711,3.778614 q 0.18584,0.495556 0.3345,0.953946 0.14867,0.446 0.223,0.854834 h 0.0496 q 0.0743,-0.309723 0.23539,-0.805279 0.16105,-0.507945 0.3345,-1.015889 l 1.35039,-3.766226 h 1.17694 l -2.86183,7.557229 q -0.34689,0.941556 -0.90439,1.499057 -0.54511,0.5575 -1.51145,0.5575 -0.29733,0 -0.52033,-0.03717 -0.223,-0.02478 -0.38406,-0.06195 v -0.867223 q 0.13628,0.02478 0.32211,0.04956 0.19823,0.02478 0.40884,0.02478 0.56989,0 0.91678,-0.322112 0.35927,-0.322111 0.5575,-0.854834 l 0.34688,-0.879612 z m 11.34824,1.969835 h 3.06006 v 4.336115 q -0.71856,0.235389 -1.4495,0.346889 -0.73095,0.1115 -1.66012,0.1115 -1.37517,0 -2.31672,-0.545111 -0.94156,-0.557501 -1.43711,-1.573391 -0.48317,-1.028278 -0.48317,-2.428224 0,-1.387557 0.54511,-2.403446 0.54511,-1.01589 1.561,-1.573391 1.02828,-0.569889 2.47778,-0.569889 0.74334,0 1.39995,0.136278 0.669,0.136278 1.23889,0.384056 l -0.42123,0.966334 q -0.47077,-0.210611 -1.06544,-0.359278 -0.58228,-0.148667 -1.21411,-0.148667 -1.58578,0 -2.47778,0.953945 -0.87961,0.953946 -0.87961,2.614058 0,1.053057 0.3345,1.870724 0.34688,0.805278 1.07783,1.263668 0.73094,0.446 1.92028,0.446 0.58228,0 0.99111,-0.06194 0.40884,-0.06195 0.74334,-0.148667 v -2.626447 h -1.94506 z m 10.58013,-1.969835 v 6.64045 h -0.892 l -0.16106,-0.879612 h -0.0496 q -0.32211,0.520334 -0.892,0.768112 -0.56989,0.235389 -1.21411,0.235389 -1.20172,0 -1.80878,-0.569889 -0.60705,-0.582278 -0.60705,-1.845946 v -4.348504 h 1.10261 v 4.27417 q 0,1.58578 1.47428,1.58578 1.10261,0 1.52383,-0.619445 0.43361,-0.619445 0.43361,-1.784002 v -3.456503 z m 5.20334,-0.123889 q 0.18583,0 0.39644,0.02478 0.223,0.01239 0.38406,0.04955 l -0.13628,1.003501 q -0.16106,-0.03717 -0.35928,-0.06194 -0.18583,-0.02478 -0.35928,-0.02478 -0.50794,0 -0.95394,0.284945 -0.446,0.272556 -0.71856,0.7805 -0.26017,0.495556 -0.26017,1.164557 v 3.543225 h -1.09022 v -6.64045 h 0.892 l 0.12389,1.214112 h 0.0496 q 0.32211,-0.545111 0.83005,-0.941556 0.50795,-0.396445 1.20173,-0.396445 z m 7.56961,0.123889 v 6.64045 h -0.892 l -0.16105,-0.879612 h -0.0496 q -0.32211,0.520334 -0.892,0.768112 -0.56989,0.235389 -1.21411,0.235389 -1.20173,0 -1.80878,-0.569889 -0.60706,-0.582278 -0.60706,-1.845946 v -4.348504 h 1.10261 v 4.27417 q 0,1.58578 1.47428,1.58578 1.10262,0 1.52384,-0.619445 0.43361,-0.619445 0.43361,-1.784002 v -3.456503 z"
       id="text4"
       transform="scale(1.0128385,0.98732425)"
       aria-label="MyGuru" />
  </g>
</svg>
